<svg width="20" height="20" viewBox="0 0 20 20" fill="none" xmlns="http://www.w3.org/2000/svg">
<g clip-path="url(#clip0_14_19)">
<path d="M19.0613 18.1116L14.9678 14.0183C14.7681 13.8185 14.5026 13.7086 14.2202 13.7086C14.0671 13.7086 13.9194 13.7419 13.784 13.8033L12.7329 12.7523C14.2172 11.4217 15.1528 9.49078 15.1528 7.34522C15.1528 3.34106 11.8951 0.0834351 7.8909 0.0834351C3.88667 0.0834351 0.629028 3.34106 0.629028 7.34522C0.629028 11.3495 3.88667 14.6071 7.8909 14.6071C9.51388 14.6071 11.0141 14.0718 12.2246 13.1687L13.3008 14.245C13.2114 14.4021 13.163 14.5801 13.163 14.7658C13.163 15.0482 13.273 15.3137 13.4726 15.5133L17.566 19.6069C17.7657 19.8066 18.0312 19.9165 18.3136 19.9165C18.5961 19.9165 18.8616 19.8065 19.0613 19.6068C19.261 19.4072 19.371 19.1416 19.371 18.8592C19.371 18.5768 19.261 18.3113 19.0613 18.1116ZM1.31717 7.34522C1.31717 3.72051 4.26612 0.771591 7.89088 0.771591C11.5157 0.771591 14.4646 3.72051 14.4646 7.34522C14.4646 10.97 11.5157 13.919 7.89088 13.919C4.26613 13.919 1.31717 10.97 1.31717 7.34522ZM18.5747 19.1202C18.505 19.19 18.4122 19.2284 18.3136 19.2284C18.215 19.2284 18.1223 19.19 18.0527 19.1203L13.9592 15.0267C13.8896 14.957 13.8512 14.8643 13.8512 14.7657C13.8512 14.6672 13.8895 14.5745 13.9593 14.5048C14.0289 14.4351 14.1216 14.3967 14.2202 14.3967C14.3187 14.3967 14.4114 14.4351 14.4811 14.5048L18.5747 18.5982C18.6444 18.6679 18.6828 18.7606 18.6828 18.8592C18.6828 18.9578 18.6444 19.0505 18.5747 19.1202Z" fill="#333333"/>
<line x1="3" y1="7.75" x2="11" y2="7.75" stroke="black" stroke-width="0.5"/>
<line x1="3" y1="10.75" x2="8" y2="10.75" stroke="black" stroke-width="0.5"/>
<line x1="3" y1="4.75" x2="13" y2="4.75" stroke="black" stroke-width="0.5"/>
</g>
<defs>
<clipPath id="clip0_14_19">
<rect width="20" height="20" fill="white"/>
</clipPath>
</defs>
</svg>
