<svg width="51" height="63" viewBox="0 0 51 63" fill="none" xmlns="http://www.w3.org/2000/svg">
<path d="M49.6271 26.0639C49.6271 32.815 46.9391 38.9284 42.5982 43.3498L25.8024 60.4486L25.6271 60.6271L8.67267 43.3582C7.85458 42.5335 7.10325 41.6407 6.4104 40.6969C3.40506 36.6242 1.62714 31.5565 1.62714 26.0639C1.62714 20.18 3.67229 14.7808 7.07824 10.5634C8.07158 9.32203 9.19026 8.19123 10.4006 7.17936C14.5412 3.71023 19.8504 1.62714 25.6271 1.62714C30.2266 1.62714 34.5175 2.94507 38.1655 5.22372C41.3961 7.23882 44.1174 10.0107 46.0959 13.3013C48.3332 17.0169 49.6271 21.3873 49.6271 26.0639Z" fill="#E56977" stroke="black" stroke-width="1.29322"/>
<path d="M40.0245 26.0662C40.0245 34.1653 33.5794 40.7307 25.627 40.7307C17.6761 40.7307 11.2296 34.1653 11.2296 26.0662C11.2296 17.967 17.6761 11.4016 25.627 11.4016C33.5794 11.4016 40.0245 17.967 40.0245 26.0662Z" fill="white" stroke="black" stroke-width="1.29322"/>
<path opacity="0.13" d="M49.6271 26.0639C49.6271 32.815 46.9391 38.9284 42.5982 43.3498L25.8024 60.4486L25.6271 60.6271V1.62714C30.2266 1.62714 34.5175 2.94507 38.1655 5.22372C41.3961 7.23882 44.1174 10.0107 46.0959 13.3013C48.3332 17.0169 49.6271 21.3873 49.6271 26.0639Z" fill="white" stroke="black" stroke-width="1.29322"/>
</svg>
